<svg width="29" height="29" viewBox="0 0 29 29" fill="none" xmlns="http://www.w3.org/2000/svg">
<path d="M21.6042 13.05C21.6042 12.615 21.7492 12.18 21.7492 11.6C21.7492 8.41005 19.1392 5.80005 15.9492 5.80005C13.6292 5.80005 11.7442 7.10505 10.7292 8.99005C10.4392 8.84505 9.85922 8.70005 9.42422 8.70005C7.39422 8.70005 5.79922 10.295 5.79922 12.325C5.79922 12.615 5.79922 12.905 5.94422 13.05C3.33422 13.485 1.44922 15.515 1.44922 18.125C1.44922 20.88 3.76922 23.2 6.52422 23.2H21.0242C23.7792 23.2 26.0992 20.88 26.0992 18.125C26.0992 15.515 24.2142 13.34 21.6042 13.05Z" fill="white"/>
</svg>
