<svg width="32" height="32" viewBox="0 0 32 32" fill="none" xmlns="http://www.w3.org/2000/svg">
<path d="M24 3.3C21.65 1.85 18.95 1 16 1V3.3H24Z" fill="#ED4C5C"/>
<path d="M16 5.60005H26.8C25.95 4.75005 25 3.95005 24 3.30005H16V5.60005Z" fill="white"/>
<path d="M16 7.9001H28.65C28.1 7.0501 27.5 6.3001 26.85 5.6001H16V7.9001Z" fill="#ED4C5C"/>
<path d="M16 10.1999H29.85C29.5 9.3999 29.1 8.5999 28.65 7.8999H16V10.1999Z" fill="white"/>
<path d="M16 12.5H30.6C30.4 11.7 30.15 10.95 29.85 10.2H16V12.5Z" fill="#ED4C5C"/>
<path d="M16 14.85H30.95C30.9 14.05 30.75 13.3 30.6 12.55H16V14.85Z" fill="white"/>
<path d="M30.95 14.8501H16V16.0001H1C1 16.4001 1 16.7501 1.05 17.1501H30.95C31 16.7501 31 16.4001 31 16.0001C31 15.6001 31 15.2001 30.95 14.8501Z" fill="#ED4C5C"/>
<path d="M1.40078 19.4499H30.6008C30.8008 18.6999 30.9008 17.9499 30.9508 17.1499H1.05078C1.10078 17.8999 1.20078 18.6999 1.40078 19.4499Z" fill="white"/>
<path d="M2.15039 21.75H29.8504C30.1504 21 30.4004 20.25 30.6004 19.45H1.40039C1.60039 20.25 1.85039 21 2.15039 21.75Z" fill="#ED4C5C"/>
<path d="M3.35039 24.05H28.6504C29.1004 23.3 29.5004 22.55 29.8504 21.75H2.15039C2.50039 22.55 2.90039 23.3 3.35039 24.05Z" fill="white"/>
<path d="M5.14961 26.35H26.8496C27.4996 25.65 28.1496 24.85 28.6496 24.05H3.34961C3.84961 24.9 4.49961 25.65 5.14961 26.35Z" fill="#ED4C5C"/>
<path d="M7.95039 28.6501H24.0504C25.1004 28.0001 26.0004 27.2001 26.8504 26.3501H5.15039C6.00039 27.2501 6.95039 28.0001 7.95039 28.6501Z" fill="white"/>
<path d="M15.9992 30.9999C18.9492 30.9999 21.6992 30.1499 24.0492 28.6499H7.94922C10.2992 30.1499 13.0492 30.9999 15.9992 30.9999Z" fill="#ED4C5C"/>
<path d="M8 3.3C6.95 3.95 6 4.75 5.15 5.6C4.45 6.3 3.85 7.1 3.35 7.9C2.9 8.65 2.45 9.4 2.15 10.2C1.85 10.95 1.6 11.7 1.4 12.5C1.2 13.25 1.1 14 1.05 14.8C1 15.2 1 15.6 1 16H16V1C13.05 1 10.35 1.85 8 3.3Z" fill="#428BC1"/>
<path d="M12.5 1.5L12.75 2.25H13.5L12.9 2.75L13.1 3.5L12.5 3.05L11.9 3.5L12.1 2.75L11.5 2.25H12.25L12.5 1.5Z" fill="white"/>
<path d="M14.5 4.5L14.75 5.25H15.5L14.9 5.75L15.1 6.5L14.5 6.05L13.9 6.5L14.1 5.75L13.5 5.25H14.25L14.5 4.5Z" fill="white"/>
<path d="M10.5 4.5L10.75 5.25H11.5L10.9 5.75L11.1 6.5L10.5 6.05L9.9 6.5L10.1 5.75L9.5 5.25H10.25L10.5 4.5Z" fill="white"/>
<path d="M12.5 7.5L12.75 8.25H13.5L12.9 8.75L13.1 9.5L12.5 9.05L11.9 9.5L12.1 8.75L11.5 8.25H12.25L12.5 7.5Z" fill="white"/>
<path d="M8.5 7.5L8.75 8.25H9.5L8.9 8.75L9.1 9.5L8.5 9.05L7.9 9.5L8.1 8.75L7.5 8.25H8.25L8.5 7.5Z" fill="white"/>
<path d="M4.5 7.5L4.75 8.25H5.5L4.9 8.75L5.1 9.5L4.5 9.05L3.9 9.5L4.1 8.75L3.5 8.25H4.25L4.5 7.5Z" fill="white"/>
<path d="M14.5 10.5L14.75 11.25H15.5L14.9 11.75L15.1 12.5L14.5 12.05L13.9 12.5L14.1 11.75L13.5 11.25H14.25L14.5 10.5Z" fill="white"/>
<path d="M10.5 10.5L10.75 11.25H11.5L10.9 11.75L11.1 12.5L10.5 12.05L9.9 12.5L10.1 11.75L9.5 11.25H10.25L10.5 10.5Z" fill="white"/>
<path d="M6.5 10.5L6.75 11.25H7.5L6.9 11.75L7.1 12.5L6.5 12.05L5.9 12.5L6.1 11.75L5.5 11.25H6.25L6.5 10.5Z" fill="white"/>
<path d="M12.5 13.5L12.75 14.25H13.5L12.9 14.75L13.1 15.5L12.5 15.05L11.9 15.5L12.1 14.75L11.5 14.25H12.25L12.5 13.5Z" fill="white"/>
<path d="M8.5 13.5L8.75 14.25H9.5L8.9 14.75L9.1 15.5L8.5 15.05L7.9 15.5L8.1 14.75L7.5 14.25H8.25L8.5 13.5Z" fill="white"/>
<path d="M4.5 13.5L4.75 14.25H5.5L4.9 14.75L5.1 15.5L4.5 15.05L3.9 15.5L4.1 14.75L3.5 14.25H4.25L4.5 13.5Z" fill="white"/>
<path d="M5.89883 6.5L6.49883 6.05L7.09883 6.5L6.84883 5.75L7.44883 5.25H6.69883L6.49883 4.5L6.24883 5.25H5.54883L6.14883 5.7L5.89883 6.5Z" fill="white"/>
<path d="M1.89922 12.5L2.49922 12.05L3.09922 12.5L2.84922 11.75L3.44922 11.25H2.74922L2.49922 10.5L2.24922 11.25H1.74922C1.74922 11.3 1.69922 11.35 1.69922 11.4L2.09922 11.7L1.89922 12.5Z" fill="white"/>
</svg>
